<svg width="499" height="500" viewBox="0 0 499 500" fill="none" xmlns="http://www.w3.org/2000/svg">
    <path d="M404.429 330.424H282.69C277.734 330.424 273.716 334.442 273.716 339.399V405.418C273.716 410.374 277.734 414.392 282.69 414.392H404.429C409.385 414.392 413.403 410.374 413.403 405.418V339.399C413.403 334.442 409.385 330.424 404.429 330.424Z" fill="white"/>
    <path opacity="0.1" d="M404.429 330.424H282.69C277.734 330.424 273.716 334.442 273.716 339.399V405.418C273.716 410.374 277.734 414.392 282.69 414.392H404.429C409.385 414.392 413.403 410.374 413.403 405.418V339.399C413.403 334.442 409.385 330.424 404.429 330.424Z" fill="#F54253"/>
    <path d="M374.926 375.447H364.146C363.49 375.447 362.958 375.979 362.958 376.636V400.528C362.958 401.184 363.49 401.716 364.146 401.716H374.926C375.582 401.716 376.114 401.184 376.114 400.528V376.636C376.114 375.979 375.582 375.447 374.926 375.447Z" fill="white"/>
    <path d="M400.902 355.018H390.123C389.467 355.018 388.935 355.55 388.935 356.206V400.528C388.935 401.185 389.467 401.717 390.123 401.717H400.902C401.558 401.717 402.09 401.185 402.09 400.528V356.206C402.09 355.55 401.558 355.018 400.902 355.018Z" fill="white"/>
    <path d="M296.996 375.447H286.217C285.56 375.447 285.028 375.979 285.028 376.636V400.528C285.028 401.184 285.56 401.716 286.217 401.716H296.996C297.652 401.716 298.184 401.184 298.184 400.528V376.636C298.184 375.979 297.652 375.447 296.996 375.447Z" fill="white"/>
    <path d="M322.972 345.728H312.193C311.537 345.728 311.005 346.26 311.005 346.916V400.528C311.005 401.184 311.537 401.716 312.193 401.716H322.972C323.629 401.716 324.161 401.184 324.161 400.528V346.916C324.161 346.26 323.629 345.728 322.972 345.728Z" fill="white"/>
    <path d="M348.949 369.56H338.17C337.513 369.56 336.981 370.092 336.981 370.748V400.528C336.981 401.185 337.513 401.717 338.17 401.717H348.949C349.605 401.717 350.137 401.185 350.137 400.528V370.748C350.137 370.092 349.605 369.56 348.949 369.56Z" fill="white"/>
    <path d="M185.329 279.069H30.8199C24.5293 279.069 19.4297 284.168 19.4297 290.459V374.249C19.4297 380.54 24.5293 385.639 30.8199 385.639H185.329C191.619 385.639 196.719 380.54 196.719 374.249V290.459C196.719 284.168 191.619 279.069 185.329 279.069Z" fill="white"/>
    <path opacity="0.1" d="M185.329 279.069H30.8199C24.5293 279.069 19.4297 284.168 19.4297 290.459V374.249C19.4297 380.54 24.5293 385.639 30.8199 385.639H185.329C191.619 385.639 196.719 380.54 196.719 374.249V290.459C196.719 284.168 191.619 279.069 185.329 279.069Z" fill="#F54253"/>
    <path d="M147.884 336.211H134.203C133.37 336.211 132.695 336.887 132.695 337.719V368.043C132.695 368.876 133.37 369.551 134.203 369.551H147.884C148.717 369.551 149.392 368.876 149.392 368.043V337.719C149.392 336.887 148.717 336.211 147.884 336.211Z" fill="white"/>
    <path d="M180.853 310.282H167.172C166.339 310.282 165.664 310.957 165.664 311.79V368.044C165.664 368.877 166.339 369.552 167.172 369.552H180.853C181.686 369.552 182.361 368.877 182.361 368.044V311.79C182.361 310.957 181.686 310.282 180.853 310.282Z" fill="white"/>
    <path d="M48.9763 336.211H35.2951C34.4623 336.211 33.7871 336.887 33.7871 337.719V368.043C33.7871 368.876 34.4623 369.551 35.2951 369.551H48.9763C49.8092 369.551 50.4843 368.876 50.4843 368.043V337.719C50.4843 336.887 49.8092 336.211 48.9763 336.211Z" fill="white"/>
    <path d="M81.9456 298.492H68.2643C67.4315 298.492 66.7563 299.168 66.7563 300V368.043C66.7563 368.876 67.4315 369.551 68.2643 369.551H81.9456C82.7784 369.551 83.4536 368.876 83.4536 368.043V300C83.4536 299.168 82.7784 298.492 81.9456 298.492Z" fill="white"/>
    <path d="M114.915 328.738H101.234C100.401 328.738 99.7256 329.413 99.7256 330.246V368.043C99.7256 368.876 100.401 369.551 101.234 369.551H114.915C115.748 369.551 116.423 368.876 116.423 368.043V330.246C116.423 329.413 115.748 328.738 114.915 328.738Z" fill="white"/>
    <path d="M478.266 0H300.814C293.589 0 287.732 5.85687 287.732 13.0817V109.315C287.732 116.54 293.589 122.396 300.814 122.396H478.266C485.491 122.396 491.348 116.54 491.348 109.315V13.0817C491.348 5.85687 485.491 0 478.266 0Z" fill="white"/>
    <path opacity="0.1" d="M478.266 0H300.814C293.589 0 287.732 5.85687 287.732 13.0817V109.315C287.732 116.54 293.589 122.396 300.814 122.396H478.266C485.491 122.396 491.348 116.54 491.348 109.315V13.0817C491.348 5.85687 485.491 0 478.266 0Z" fill="#F54253"/>
    <path d="M435.262 65.6285H419.549C418.593 65.6285 417.817 66.4039 417.817 67.3604V102.188C417.817 103.144 418.593 103.92 419.549 103.92H435.262C436.218 103.92 436.994 103.144 436.994 102.188V67.3604C436.994 66.4039 436.218 65.6285 435.262 65.6285Z" fill="white"/>
    <path d="M473.126 35.8486H457.413C456.457 35.8486 455.682 36.624 455.682 37.5805V102.188C455.682 103.144 456.457 103.92 457.413 103.92H473.126C474.083 103.92 474.858 103.144 474.858 102.188V37.5805C474.858 36.624 474.083 35.8486 473.126 35.8486Z" fill="white"/>
    <path d="M321.667 65.6285H305.955C304.998 65.6285 304.223 66.4039 304.223 67.3604V102.188C304.223 103.144 304.998 103.92 305.955 103.92H321.667C322.624 103.92 323.399 103.144 323.399 102.188V67.3604C323.399 66.4039 322.624 65.6285 321.667 65.6285Z" fill="white"/>
    <path d="M359.532 22.3083H343.82C342.863 22.3083 342.088 23.0837 342.088 24.0402V102.188C342.088 103.144 342.863 103.92 343.82 103.92H359.532C360.489 103.92 361.264 103.144 361.264 102.188V24.0402C361.264 23.0837 360.489 22.3083 359.532 22.3083Z" fill="white"/>
    <path d="M397.397 57.0454H381.684C380.728 57.0454 379.952 57.8208 379.952 58.7773V102.187C379.952 103.144 380.728 103.919 381.684 103.919H397.397C398.353 103.919 399.128 103.144 399.128 102.187V58.7773C399.128 57.8208 398.353 57.0454 397.397 57.0454Z" fill="white"/>
    <path d="M92.9471 101.024H6.38123C2.85697 101.024 0 103.881 0 107.405V154.35C0 157.875 2.85697 160.731 6.38123 160.731H92.9471C96.4713 160.731 99.3283 157.875 99.3283 154.35V107.405C99.3283 103.881 96.4713 101.024 92.9471 101.024Z" fill="white"/>
    <path opacity="0.3" d="M92.9471 101.024H6.38123C2.85697 101.024 0 103.881 0 107.405V154.35C0 157.875 2.85697 160.731 6.38123 160.731H92.9471C96.4713 160.731 99.3283 157.875 99.3283 154.35V107.405C99.3283 103.881 96.4713 101.024 92.9471 101.024Z" fill="#F54253"/>
    <path d="M71.9685 133.039H64.3032C63.8367 133.039 63.4585 133.417 63.4585 133.884V150.874C63.4585 151.34 63.8367 151.718 64.3032 151.718H71.9685C72.435 151.718 72.8132 151.34 72.8132 150.874V133.884C72.8132 133.417 72.435 133.039 71.9685 133.039Z" fill="white"/>
    <path d="M90.4397 118.511H82.7744C82.3079 118.511 81.9297 118.89 81.9297 119.356V150.873C81.9297 151.34 82.3079 151.718 82.7744 151.718H90.4397C90.9062 151.718 91.2844 151.34 91.2844 150.873V119.356C91.2844 118.89 90.9062 118.511 90.4397 118.511Z" fill="white"/>
    <path d="M16.5545 133.039H8.88911C8.42261 133.039 8.04443 133.417 8.04443 133.884V150.874C8.04443 151.34 8.42261 151.718 8.88911 151.718H16.5545C17.021 151.718 17.3991 151.34 17.3991 150.874V133.884C17.3991 133.417 17.021 133.039 16.5545 133.039Z" fill="white"/>
    <path d="M35.0261 111.906H27.3608C26.8943 111.906 26.5161 112.284 26.5161 112.751V150.874C26.5161 151.34 26.8943 151.718 27.3608 151.718H35.0261C35.4927 151.718 35.8708 151.34 35.8708 150.874V112.751C35.8708 112.284 35.4927 111.906 35.0261 111.906Z" fill="white"/>
    <path d="M53.4973 128.852H45.832C45.3655 128.852 44.9873 129.23 44.9873 129.696V150.873C44.9873 151.34 45.3655 151.718 45.832 151.718H53.4973C53.9638 151.718 54.342 151.34 54.342 150.873V129.696C54.342 129.23 53.9638 128.852 53.4973 128.852Z" fill="white"/>
    <path d="M82.5292 312.655L432.159 312.655C440.745 312.655 447.705 305.694 447.705 297.109L447.705 41.1261C447.705 32.5401 440.745 25.5798 432.159 25.5798L82.5292 25.5798C73.9432 25.5798 66.9829 32.5401 66.9829 41.1261L66.9829 297.109C66.9829 305.694 73.9432 312.655 82.5292 312.655Z" fill="white"/>
    <path d="M66.4644 297.109V41.1261C66.4692 36.867 68.1632 32.7838 71.1748 29.7721C74.1865 26.7605 78.2698 25.0664 82.5288 25.0616H432.158C436.418 25.0664 440.501 26.7605 443.512 29.7721C446.524 32.7838 448.218 36.867 448.223 41.1261V297.109C448.218 301.368 446.524 305.451 443.512 308.463C440.501 311.474 436.418 313.168 432.158 313.173H82.5288C78.2698 313.168 74.1865 311.474 71.1748 308.463C68.1632 305.451 66.4692 301.368 66.4644 297.109ZM82.5288 26.0981C78.5446 26.1027 74.7248 27.6875 71.9075 30.5048C69.0902 33.3221 67.5054 37.1419 67.5008 41.1261V297.109C67.5053 301.093 69.0901 304.913 71.9074 307.73C74.7247 310.547 78.5445 312.132 82.5288 312.137H432.158C436.143 312.132 439.963 310.548 442.78 307.73C445.597 304.913 447.182 301.093 447.187 297.109V41.1261C447.182 37.1418 445.597 33.322 442.78 30.5047C439.963 27.6874 436.143 26.1026 432.158 26.0981H82.5288Z" fill="#292A2E"/>
    <path d="M66.9829 41.1245V56.7677H447.703V41.1245C447.703 37.0014 446.065 33.0471 443.15 30.1316C440.234 27.2162 436.28 25.5782 432.157 25.5782H82.5292C78.4061 25.5782 74.4518 27.2162 71.5363 30.1316C68.6208 33.0471 66.9829 37.0014 66.9829 41.1245Z" fill="#292A2E"/>
    <path d="M427.133 71.6326H278.787C275.145 71.6326 272.193 74.5844 272.193 78.2257V183.167C272.193 186.809 275.145 189.76 278.787 189.76H427.133C430.775 189.76 433.726 186.809 433.726 183.167V78.2257C433.726 74.5844 430.775 71.6326 427.133 71.6326Z" fill="white"/>
    <path opacity="0.15" d="M427.133 71.6326H278.787C275.145 71.6326 272.193 74.5844 272.193 78.2257V183.167C272.193 186.809 275.145 189.76 278.787 189.76H427.133C430.775 189.76 433.726 186.809 433.726 183.167V78.2257C433.726 74.5844 430.775 71.6326 427.133 71.6326Z" fill="#F54253"/>
    <path d="M301.188 86.373H288.366C287.771 86.373 287.288 86.8559 287.288 87.4514V173.942C287.288 174.537 287.771 175.02 288.366 175.02H301.188C301.783 175.02 302.266 174.537 302.266 173.942V87.4514C302.266 86.8559 301.783 86.373 301.188 86.373Z" fill="#FAFAFA"/>
    <path opacity="0.6" d="M287.288 129.826H302.264V173.942C302.264 174.228 302.151 174.502 301.948 174.704C301.746 174.906 301.472 175.02 301.186 175.02H288.366C288.08 175.02 287.806 174.906 287.604 174.704C287.402 174.502 287.288 174.228 287.288 173.942V129.826Z" fill="#F54253"/>
    <path d="M330.278 86.373H317.457C316.862 86.373 316.379 86.8559 316.379 87.4514V173.942C316.379 174.537 316.862 175.02 317.457 175.02H330.278C330.874 175.02 331.357 174.537 331.357 173.942V87.4514C331.357 86.8559 330.874 86.373 330.278 86.373Z" fill="#FAFAFA"/>
    <path opacity="0.6" d="M316.379 117.54H331.355V173.941C331.355 174.227 331.242 174.501 331.039 174.704C330.837 174.906 330.563 175.02 330.277 175.02H317.457C317.171 175.02 316.897 174.906 316.695 174.704C316.493 174.501 316.379 174.227 316.379 173.941V117.54Z" fill="#F54253"/>
    <path d="M417.553 86.373H404.732C404.136 86.373 403.653 86.8559 403.653 87.4514V173.942C403.653 174.537 404.136 175.02 404.732 175.02H417.553C418.148 175.02 418.631 174.537 418.631 173.942V87.4514C418.631 86.8559 418.148 86.373 417.553 86.373Z" fill="#FAFAFA"/>
    <path opacity="0.6" d="M403.653 105.145H418.63V173.942C418.63 174.228 418.516 174.502 418.314 174.705C418.111 174.907 417.837 175.021 417.551 175.021H404.732C404.446 175.021 404.172 174.907 403.97 174.705C403.767 174.502 403.654 174.228 403.654 173.942V105.145H403.653Z" fill="#F54253"/>
    <path d="M359.371 86.373H346.55C345.954 86.373 345.472 86.8559 345.472 87.4514V173.942C345.472 174.537 345.954 175.02 346.55 175.02H359.371C359.967 175.02 360.449 174.537 360.449 173.942V87.4514C360.449 86.8559 359.967 86.373 359.371 86.373Z" fill="#FAFAFA"/>
    <path opacity="0.6" d="M345.472 149.698H360.448V173.942C360.448 174.228 360.334 174.502 360.132 174.704C359.93 174.906 359.656 175.02 359.37 175.02H346.55C346.264 175.02 345.99 174.906 345.788 174.704C345.585 174.502 345.472 174.228 345.472 173.942V149.698Z" fill="#F54253"/>
    <path d="M388.462 86.373H375.641C375.045 86.373 374.562 86.8559 374.562 87.4514V173.942C374.562 174.537 375.045 175.02 375.641 175.02H388.462C389.058 175.02 389.54 174.537 389.54 173.942V87.4514C389.54 86.8559 389.058 86.373 388.462 86.373Z" fill="#FAFAFA"/>
    <path opacity="0.6" d="M374.561 134.208H389.537V173.941C389.537 174.227 389.423 174.501 389.221 174.704C389.019 174.906 388.744 175.019 388.458 175.019H375.64C375.499 175.019 375.359 174.992 375.228 174.937C375.097 174.883 374.978 174.804 374.878 174.704C374.778 174.603 374.698 174.485 374.644 174.354C374.59 174.223 374.562 174.083 374.562 173.941V134.208H374.561Z" fill="#F54253"/>
    <path opacity="0.15" d="M424.289 201.323H279.847C274.635 201.323 270.409 205.549 270.409 210.761V288.975C270.409 294.188 274.635 298.413 279.847 298.413H424.289C429.501 298.413 433.727 294.188 433.727 288.975V210.761C433.727 205.549 429.501 201.323 424.289 201.323Z" fill="#F54253"/>
    <path d="M368.103 225.575C370.041 225.575 371.611 224.004 371.611 222.067C371.611 220.129 370.041 218.558 368.103 218.558C366.165 218.558 364.595 220.129 364.595 222.067C364.595 224.004 366.165 225.575 368.103 225.575Z" fill="#F54253"/>
    <path d="M368.103 243.459C370.041 243.459 371.611 241.888 371.611 239.95C371.611 238.013 370.041 236.442 368.103 236.442C366.165 236.442 364.595 238.013 364.595 239.95C364.595 241.888 366.165 243.459 368.103 243.459Z" fill="#262626"/>
    <path d="M368.103 261.343C370.041 261.343 371.611 259.772 371.611 257.835C371.611 255.897 370.041 254.327 368.103 254.327C366.165 254.327 364.595 255.897 364.595 257.835C364.595 259.772 366.165 261.343 368.103 261.343Z" fill="white"/>
    <path opacity="0.5" d="M368.103 279.227C370.041 279.227 371.611 277.657 371.611 275.719C371.611 273.781 370.041 272.211 368.103 272.211C366.165 272.211 364.595 273.781 364.595 275.719C364.595 277.657 366.165 279.227 368.103 279.227Z" fill="#F54253"/>
    <path d="M416.789 222.065C416.789 222.591 416.58 223.096 416.208 223.468C415.836 223.841 415.331 224.05 414.805 224.05H381.083C380.614 224.058 380.156 223.906 379.786 223.617C379.416 223.328 379.156 222.921 379.051 222.464C378.992 222.175 378.998 221.877 379.069 221.591C379.139 221.305 379.273 221.038 379.459 220.81C379.645 220.582 379.88 220.398 380.146 220.272C380.413 220.146 380.704 220.08 380.998 220.08H414.805C415.065 220.08 415.323 220.132 415.564 220.231C415.805 220.331 416.024 220.477 416.208 220.661C416.393 220.846 416.539 221.065 416.638 221.305C416.738 221.546 416.789 221.804 416.789 222.065Z" fill="white"/>
    <path d="M416.79 239.95C416.79 240.476 416.581 240.981 416.209 241.353C415.837 241.726 415.332 241.935 414.805 241.935H381.104C380.829 241.939 380.555 241.888 380.3 241.784C380.045 241.681 379.813 241.528 379.618 241.333C379.424 241.139 379.27 240.907 379.166 240.652C379.063 240.397 379.011 240.124 379.015 239.848C379.041 239.34 379.262 238.862 379.631 238.511C380 238.161 380.49 237.966 380.999 237.966H414.805C415.066 237.966 415.324 238.017 415.565 238.117C415.806 238.216 416.025 238.363 416.209 238.547C416.393 238.731 416.539 238.95 416.639 239.191C416.739 239.431 416.79 239.689 416.79 239.95Z" fill="white"/>
    <path d="M416.79 257.835C416.79 258.361 416.581 258.866 416.209 259.238C415.837 259.611 415.332 259.82 414.805 259.82H380.794C380.322 259.82 379.868 259.632 379.534 259.298C379.2 258.963 379.012 258.51 379.012 258.037V257.633C379.012 257.161 379.2 256.707 379.534 256.373C379.868 256.039 380.322 255.851 380.794 255.851H414.805C415.066 255.851 415.324 255.902 415.565 256.002C415.806 256.101 416.025 256.248 416.209 256.432C416.393 256.616 416.539 256.835 416.639 257.076C416.739 257.316 416.79 257.574 416.79 257.835Z" fill="white"/>
    <path d="M416.79 275.72C416.79 276.246 416.58 276.751 416.208 277.123C415.836 277.496 415.331 277.705 414.805 277.705H381.091C380.621 277.714 380.162 277.561 379.791 277.273C379.42 276.985 379.159 276.578 379.051 276.121C378.992 275.832 378.998 275.534 379.068 275.248C379.139 274.962 379.272 274.695 379.458 274.467C379.645 274.239 379.88 274.055 380.146 273.929C380.412 273.802 380.703 273.737 380.997 273.737H414.804C415.064 273.737 415.322 273.788 415.563 273.887C415.804 273.987 416.023 274.133 416.207 274.317C416.392 274.501 416.538 274.72 416.638 274.961C416.738 275.201 416.789 275.459 416.79 275.72Z" fill="white"/>
    <path d="M302.277 248.893C302.278 253.169 303.605 257.34 306.075 260.831C308.545 264.322 312.037 266.961 316.07 268.385L310.398 282.217C302.598 279.277 296.077 273.694 291.971 266.441C287.864 259.187 286.432 250.723 287.926 242.522C289.419 234.321 293.742 226.904 300.141 221.564C306.541 216.223 314.611 213.297 322.947 213.295V228.227C317.465 228.226 312.208 230.404 308.332 234.279C304.456 238.155 302.278 243.411 302.277 248.893Z" fill="#F54253"/>
    <path d="M358.548 248.893H343.616C343.616 243.411 341.438 238.154 337.562 234.278C333.686 230.401 328.429 228.224 322.947 228.223V213.292C332.389 213.292 341.444 217.043 348.121 223.719C354.797 230.396 358.548 239.451 358.548 248.893Z" fill="black"/>
    <path d="M358.549 248.893C358.548 256.96 355.808 264.787 350.779 271.094C345.749 277.401 338.728 281.814 330.863 283.61L328.334 268.85C332.72 267.665 336.594 265.068 339.356 261.461C342.119 257.853 343.616 253.436 343.617 248.893H358.549Z" fill="white"/>
    <path opacity="0.5" d="M330.863 283.61C324.051 285.153 316.937 284.668 310.398 282.215L316.07 268.385C320.017 269.771 324.292 269.934 328.333 268.852L330.863 283.61Z" fill="#F54253"/>
    <path opacity="0.15" d="M249.686 71.6326H90.2697C85.1181 71.6326 80.9419 75.8088 80.9419 80.9603V289.086C80.9419 294.237 85.1181 298.413 90.2697 298.413H249.686C254.837 298.413 259.014 294.237 259.014 289.086V80.9603C259.014 75.8088 254.837 71.6326 249.686 71.6326Z" fill="#F54253"/>
    <path d="M218.157 160.141C218.157 170.489 215.088 180.605 209.339 189.209C203.59 197.813 195.419 204.519 185.858 208.479C176.298 212.439 165.778 213.476 155.629 211.457C145.479 209.438 136.157 204.455 128.839 197.138C121.522 189.821 116.539 180.498 114.52 170.349C112.501 160.199 113.537 149.679 117.497 140.119C121.457 130.558 128.163 122.387 136.768 116.638C145.372 110.889 155.488 107.82 165.836 107.82V160.141H218.157Z" fill="#FAFAFA"/>
    <path opacity="0.6" d="M224.571 153.344H172.253V101.024C186.129 101.024 199.436 106.537 209.248 116.349C219.059 126.161 224.571 139.469 224.571 153.344Z" fill="#F54253"/>
    <path opacity="0.6" d="M111.582 242.142C113.52 242.142 115.09 240.571 115.09 238.634C115.09 236.696 113.52 235.125 111.582 235.125C109.644 235.125 108.074 236.696 108.074 238.634C108.074 240.571 109.644 242.142 111.582 242.142Z" fill="#367CFF"/>
    <path d="M111.582 260.027C113.52 260.027 115.09 258.456 115.09 256.518C115.09 254.581 113.52 253.01 111.582 253.01C109.644 253.01 108.074 254.581 108.074 256.518C108.074 258.456 109.644 260.027 111.582 260.027Z" fill="#FAFAFA"/>
    <path opacity="0.6" d="M231.781 238.635C231.781 239.162 231.572 239.667 231.199 240.039C230.827 240.411 230.322 240.62 229.796 240.62H124.562C124.092 240.629 123.634 240.476 123.264 240.187C122.894 239.898 122.635 239.491 122.529 239.034C122.47 238.745 122.477 238.447 122.547 238.161C122.618 237.875 122.751 237.608 122.938 237.38C123.124 237.152 123.359 236.968 123.625 236.842C123.892 236.716 124.182 236.65 124.477 236.65H229.796C230.057 236.65 230.315 236.701 230.556 236.801C230.796 236.901 231.015 237.047 231.2 237.232C231.384 237.416 231.53 237.635 231.63 237.876C231.729 238.117 231.781 238.375 231.781 238.635Z" fill="#367CFF"/>
    <path d="M231.781 256.518C231.781 257.044 231.572 257.549 231.199 257.921C230.827 258.293 230.322 258.502 229.796 258.502H124.582C124.307 258.507 124.033 258.455 123.778 258.352C123.523 258.249 123.291 258.095 123.096 257.901C122.901 257.706 122.748 257.475 122.644 257.22C122.54 256.965 122.489 256.691 122.492 256.416C122.519 255.908 122.74 255.429 123.109 255.079C123.478 254.728 123.968 254.533 124.477 254.533H229.796C230.057 254.533 230.315 254.584 230.555 254.684C230.796 254.784 231.015 254.93 231.199 255.114C231.384 255.299 231.53 255.517 231.63 255.758C231.729 255.999 231.781 256.257 231.781 256.518Z" fill="white"/>
    <path d="M65.7372 444.136C65.6812 444.136 65.6258 444.125 65.5741 444.104C65.5225 444.082 65.4755 444.051 65.4361 444.011C64.8355 443.411 63.8576 432.399 61.2225 399.614C60.1441 386.199 59.1253 373.527 58.3822 365.827C58.3304 365.277 58.1159 365.213 58.0459 365.192C57.0287 364.885 53.9344 367.325 52.2072 369.461C52.1721 369.505 52.1287 369.541 52.0795 369.568C52.0303 369.595 51.9764 369.611 51.9207 369.617C51.8651 369.623 51.8088 369.618 51.7552 369.602C51.7015 369.586 51.6515 369.56 51.6079 369.525C51.5644 369.49 51.5283 369.446 51.5015 369.397C51.4748 369.348 51.458 369.294 51.4521 369.238C51.4462 369.183 51.4513 369.126 51.4672 369.073C51.483 369.019 51.5093 368.969 51.5445 368.926C52.6845 367.513 56.4099 363.81 58.291 364.376C58.5739 364.473 58.818 364.658 58.9872 364.905C59.1564 365.151 59.2417 365.446 59.2305 365.745C59.9742 373.452 60.9924 386.127 62.0719 399.546C63.6731 419.469 65.4869 442.039 66.0833 443.461C66.1286 443.525 66.1556 443.6 66.1612 443.678C66.1668 443.756 66.1509 443.834 66.1151 443.903C66.0794 443.973 66.0253 444.031 65.9586 444.072C65.8919 444.113 65.8153 444.135 65.7372 444.135V444.136Z" fill="#494949"/>
    <path d="M57.2891 379.958C64.3578 374.292 66.7007 365.472 62.522 360.259C58.3434 355.046 49.2256 355.414 42.1569 361.08C35.0882 366.746 32.7454 375.565 36.924 380.778C41.1026 385.991 50.2204 385.624 57.2891 379.958Z" fill="#0CBC8B"/>
    <path opacity="0.2" d="M57.2891 379.958C64.3578 374.292 66.7007 365.472 62.522 360.259C58.3434 355.046 49.2256 355.414 42.1569 361.08C35.0882 366.746 32.7454 375.565 36.924 380.778C41.1026 385.991 50.2204 385.624 57.2891 379.958Z" fill="white"/>
    <path d="M38.9045 382.104C38.8641 382.104 38.8246 382.092 38.7905 382.07C38.7565 382.049 38.7293 382.018 38.7121 381.981C38.6949 381.945 38.6885 381.904 38.6936 381.864C38.6987 381.824 38.715 381.786 38.7408 381.755L58.8862 357.461C58.9222 357.418 58.9741 357.39 59.0304 357.385C59.0867 357.38 59.1427 357.397 59.1862 357.433C59.2297 357.469 59.2571 357.521 59.2623 357.578C59.2676 357.634 59.2503 357.69 59.2142 357.733L39.0688 382.027C39.0488 382.051 39.0237 382.071 38.9953 382.084C38.9669 382.097 38.9359 382.104 38.9045 382.104Z" fill="white"/>
    <path d="M70.1311 438.928C70.0632 438.928 69.9963 438.911 69.936 438.88C69.8757 438.849 69.8237 438.804 69.7844 438.748C69.7451 438.693 69.7195 438.629 69.7099 438.562C69.7002 438.495 69.7068 438.426 69.729 438.362L77.2948 416.6C77.5174 415.96 77.8969 415.387 78.3987 414.932C78.9004 414.477 79.5083 414.155 80.1666 413.996C80.825 413.838 81.5127 413.846 82.1666 414.022C82.8206 414.198 83.42 414.536 83.9098 415.003L87.9104 418.825C87.9896 418.904 88.0349 419.01 88.0363 419.122C88.0378 419.233 87.9954 419.341 87.9183 419.422C87.8411 419.503 87.7354 419.55 87.6238 419.553C87.5122 419.557 87.4038 419.516 87.3217 419.441L83.3211 415.619C82.9345 415.25 82.4614 414.984 81.9451 414.845C81.4288 414.706 80.8858 414.699 80.3661 414.824C79.8464 414.95 79.3664 415.204 78.9703 415.563C78.5743 415.922 78.2747 416.375 78.0991 416.88L70.5333 438.644C70.5038 438.727 70.4493 438.799 70.3772 438.85C70.3052 438.901 70.2192 438.928 70.1311 438.928Z" fill="#494949"/>
    <path d="M99.0872 430.873C104.326 426.726 104.014 417.607 98.3919 410.503C92.7693 403.4 83.9645 401.003 78.726 405.149C73.4874 409.296 73.7988 418.416 79.4214 425.519C85.044 432.622 93.8487 435.019 99.0872 430.873Z" fill="#0CBC8B"/>
    <path d="M62.2994 442.748C62.2036 442.748 62.1107 442.716 62.0355 442.656C61.9603 442.597 61.9072 442.514 61.8849 442.421L49.1887 389.324C49.1022 388.962 48.9174 388.631 48.6548 388.367C48.3922 388.103 48.0619 387.917 47.7002 387.829C47.3386 387.741 46.9596 387.754 46.605 387.867C46.2504 387.98 45.9339 388.189 45.6903 388.471L41.7757 392.994C41.7397 393.038 41.6952 393.075 41.6449 393.101C41.5945 393.128 41.5394 393.144 41.4826 393.149C41.4259 393.154 41.3688 393.147 41.3146 393.13C41.2605 393.112 41.2104 393.084 41.1673 393.047C41.1243 393.01 41.0891 392.964 41.0639 392.913C41.0388 392.862 41.0241 392.806 41.0207 392.75C41.0174 392.693 41.0255 392.636 41.0446 392.582C41.0636 392.529 41.0932 392.479 41.1316 392.437L45.0462 387.913C45.3924 387.513 45.8422 387.217 46.346 387.056C46.8499 386.895 47.3884 386.877 47.9022 387.002C48.416 387.127 48.8853 387.392 49.2585 387.767C49.6316 388.142 49.8942 388.612 50.0173 389.126L62.7135 442.223C62.7265 442.277 62.7287 442.334 62.7199 442.389C62.7111 442.444 62.6916 442.497 62.6623 442.545C62.633 442.593 62.5947 442.634 62.5494 442.667C62.5041 442.7 62.4528 442.723 62.3984 442.736C62.366 442.744 62.3328 442.748 62.2994 442.748Z" fill="#494949"/>
    <path d="M57.614 404.793C59.1577 395.866 55.0722 387.706 48.4889 386.568C41.9056 385.429 35.3173 391.743 33.7736 400.67C32.2299 409.597 36.3154 417.756 42.8987 418.895C49.482 420.033 56.0702 413.719 57.614 404.793Z" fill="#0CBC8B"/>
    <path d="M65.738 444.136C65.7207 444.136 65.7034 444.135 65.6862 444.133C65.5741 444.119 65.472 444.061 65.4025 443.972C65.3329 443.883 65.3015 443.77 65.3151 443.658L73.4241 377.819C73.5124 377.102 73.8059 376.425 74.2695 375.871C74.7331 375.317 75.3469 374.908 76.0371 374.694C76.7274 374.48 77.4647 374.47 78.1605 374.666C78.8563 374.861 79.4809 375.253 79.9592 375.794L89.2279 386.292C89.2649 386.334 89.2934 386.383 89.3116 386.435C89.3298 386.488 89.3374 386.544 89.3339 386.6C89.3305 386.656 89.3161 386.711 89.2915 386.761C89.267 386.811 89.2328 386.856 89.1908 386.893C89.1489 386.93 89.1001 386.959 89.0472 386.977C88.9943 386.995 88.9383 387.003 88.8825 386.999C88.8266 386.996 88.772 386.981 88.7217 386.957C88.6715 386.932 88.6265 386.898 88.5895 386.856L79.3208 376.359C78.9511 375.94 78.4685 375.637 77.9308 375.486C77.3931 375.335 76.8232 375.343 76.2898 375.508C75.7563 375.673 75.2819 375.989 74.9235 376.417C74.5652 376.846 74.3382 377.368 74.2698 377.923L66.1603 443.762C66.1477 443.865 66.0978 443.96 66.02 444.029C65.9422 444.098 65.8419 444.136 65.738 444.136Z" fill="#494949"/>
    <path d="M98.7329 392.126C101.967 386.279 98.1618 377.985 90.2344 373.6C82.3071 369.215 73.2591 370.4 70.0253 376.246C66.7915 382.092 70.5963 390.387 78.5237 394.772C86.4511 399.157 95.4991 397.972 98.7329 392.126Z" fill="#0CBC8B"/>
    <path opacity="0.2" d="M99.0872 430.873C104.326 426.726 104.014 417.607 98.3919 410.503C92.7693 403.4 83.9645 401.003 78.726 405.149C73.4874 409.296 73.7988 418.416 79.4214 425.519C85.044 432.622 93.8487 435.019 99.0872 430.873Z" fill="white"/>
    <path opacity="0.5" d="M57.614 404.793C59.1577 395.866 55.0722 387.706 48.4889 386.568C41.9056 385.429 35.3173 391.743 33.7736 400.67C32.2299 409.597 36.3154 417.756 42.8987 418.895C49.482 420.033 56.0702 413.719 57.614 404.793Z" fill="white"/>
    <path opacity="0.5" d="M98.7329 392.126C101.967 386.279 98.1618 377.985 90.2344 373.6C82.3071 369.215 73.2591 370.4 70.0253 376.246C66.7915 382.092 70.5963 390.387 78.5237 394.772C86.4511 399.157 95.4991 397.972 98.7329 392.126Z" fill="white"/>
    <path d="M76.1094 500H55.3655L51.9282 433.63H79.5467L76.1094 500Z" fill="#292A2E"/>
    <path opacity="0.3" d="M76.1094 500H55.3655L51.9282 433.63H79.5467L76.1094 500Z" fill="white"/>
    <path d="M99.0897 431.084C99.0574 431.084 99.0256 431.077 98.9966 431.063C98.9676 431.049 98.9422 431.029 98.9223 431.003L78.5608 405.28C78.5434 405.258 78.5305 405.233 78.5228 405.206C78.5152 405.179 78.5128 405.151 78.516 405.123C78.5192 405.095 78.5279 405.069 78.5415 405.044C78.5551 405.02 78.5733 404.998 78.5953 404.981C78.6172 404.963 78.6423 404.95 78.6692 404.943C78.6961 404.935 78.7242 404.933 78.752 404.936C78.7798 404.939 78.8067 404.948 78.8312 404.961C78.8556 404.975 78.8771 404.993 78.8945 405.015L99.2565 430.739C99.2915 430.783 99.3074 430.84 99.3008 430.896C99.2942 430.952 99.2656 431.003 99.2213 431.038C99.1839 431.068 99.1375 431.084 99.0897 431.084Z" fill="white"/>
    <path d="M97.3793 394.187C97.3343 394.187 97.2904 394.172 97.2539 394.146L71.1984 375.12C71.1749 375.104 71.1549 375.083 71.1395 375.059C71.1242 375.035 71.1138 375.009 71.109 374.981C71.1042 374.953 71.1051 374.924 71.1116 374.896C71.1181 374.868 71.1301 374.842 71.1468 374.819C71.1636 374.796 71.1848 374.777 71.2092 374.762C71.2336 374.747 71.2607 374.738 71.2889 374.734C71.3171 374.73 71.3458 374.731 71.3733 374.739C71.4009 374.746 71.4266 374.759 71.4492 374.776L97.5053 393.802C97.5416 393.828 97.5686 393.866 97.5824 393.908C97.5962 393.951 97.5961 393.997 97.5821 394.04C97.5682 394.083 97.541 394.12 97.5046 394.146C97.4681 394.173 97.4243 394.187 97.3793 394.187Z" fill="white"/>
    <path d="M41.8425 418.616C41.8237 418.616 41.8051 418.614 41.787 418.609C41.7328 418.594 41.6865 418.559 41.6583 418.51C41.6301 418.462 41.6221 418.404 41.6362 418.35L49.9307 387.273C49.9457 387.219 49.9812 387.173 50.0296 387.145C50.078 387.117 50.1355 387.109 50.1898 387.122C50.2441 387.137 50.2904 387.172 50.3187 387.22C50.3469 387.269 50.3548 387.327 50.3406 387.381L42.0477 418.458C42.0357 418.503 42.009 418.544 41.9719 418.572C41.9348 418.601 41.8893 418.616 41.8425 418.616Z" fill="white"/>
    <path d="M465.076 500H39.9277C39.8315 500 39.7392 499.962 39.6712 499.894C39.6032 499.826 39.5649 499.733 39.5649 499.637C39.5649 499.541 39.6032 499.449 39.6712 499.381C39.7392 499.313 39.8315 499.274 39.9277 499.274H465.076C465.173 499.274 465.265 499.313 465.333 499.381C465.401 499.449 465.439 499.541 465.439 499.637C465.439 499.733 465.401 499.826 465.333 499.894C465.265 499.962 465.173 500 465.076 500Z" fill="#292A2E"/>
    <path d="M148.091 476.746C148.091 476.746 150.431 488.875 161.785 489.552C173.139 490.23 170.678 499.274 170.678 499.274H127.285V477.592L148.091 476.746Z" fill="#F54253"/>
    <path d="M124.342 255.507C124.342 255.507 127.587 251.861 127.559 260.131C127.452 290.98 125.37 484.486 125.37 484.486L153.885 484.247L171.158 254.253L124.342 255.507Z" fill="#262626"/>
    <path d="M196.783 476.746C196.783 476.746 199.122 488.875 210.478 489.55C221.833 490.226 219.371 499.272 219.371 499.272H175.977V477.592L196.783 476.746Z" fill="#F54253"/>
    <path d="M202.298 257.902C202.298 257.902 205.86 363.335 205.49 368.488L202.14 483.686L174.096 484.204L169.574 364.32C169.574 364.32 166.61 331.25 158.62 300.542C154.532 284.782 152.072 268.643 151.278 252.381L202.298 257.902Z" fill="#262626"/>
    <path d="M165.302 332.654L167.64 296.893C167.64 296.893 170.042 311.76 170.042 324.574C170.042 330.838 168.752 355.637 168.752 355.637L165.302 332.654Z" fill="#0A0A0A"/>
    <path d="M124.032 255.504L123.939 255.509C123.939 255.509 124.007 253.711 124.032 255.504Z" fill="#333333"/>
    <path d="M124.15 255.504L124.057 255.509C124.057 255.509 124.124 253.711 124.15 255.504Z" fill="#333333"/>
    <path d="M280.403 169.928C280.231 169.587 279.958 169.309 279.621 169.131C279.285 168.952 278.901 168.883 278.523 168.932C278.526 168.899 278.519 168.865 278.502 168.836C278.484 168.813 278.461 168.796 278.435 168.785C278.408 168.774 278.379 168.77 278.351 168.774L279.626 167.86C280.008 167.599 280.282 167.208 280.398 166.761C280.514 166.313 280.464 165.838 280.257 165.424C280.04 165.022 279.681 164.715 279.25 164.563C278.819 164.41 278.347 164.424 277.925 164.6C277.929 164.582 277.917 164.565 277.914 164.548L278.438 164.173C278.796 163.925 279.058 163.561 279.179 163.143C279.3 162.724 279.273 162.277 279.102 161.876C278.99 161.627 278.823 161.406 278.615 161.229C278.407 161.053 278.162 160.924 277.899 160.853C277.635 160.782 277.359 160.771 277.09 160.819C276.821 160.868 276.566 160.976 276.344 161.135L275.135 162.002C275.132 161.994 275.135 161.986 275.131 161.979C275.126 161.973 275.112 161.97 275.106 161.963C275.383 161.65 275.547 161.253 275.569 160.836C275.591 160.418 275.47 160.006 275.227 159.666C274.657 158.748 273.339 158.936 272.557 159.496L265.441 164.411L266.713 162.27C266.969 161.858 267.058 161.364 266.964 160.888C266.871 160.412 266.6 159.99 266.207 159.705C265.998 159.566 265.764 159.471 265.517 159.425C265.271 159.379 265.018 159.384 264.774 159.44C264.529 159.495 264.299 159.599 264.096 159.747C263.893 159.894 263.723 160.081 263.595 160.297L256.651 171.989C255.836 173.36 255.588 174.995 255.96 176.547C256.331 178.099 257.293 179.444 258.641 180.298C260.205 181.287 262.028 181.788 263.877 181.735C265.727 181.682 267.519 181.077 269.022 180L279.769 172.296C280.126 172.031 280.383 171.652 280.498 171.222C280.613 170.792 280.58 170.336 280.403 169.928Z" fill="#E98862"/>
    <g opacity="0.25">
    <path opacity="0.25" d="M268.093 166.859C268.119 166.895 268.158 166.919 268.202 166.927C268.246 166.934 268.291 166.924 268.328 166.899L275.089 162.216C275.108 162.203 275.123 162.187 275.135 162.168C275.147 162.149 275.156 162.128 275.16 162.106C275.164 162.084 275.163 162.062 275.159 162.04C275.154 162.018 275.145 161.997 275.132 161.979C275.119 161.96 275.103 161.945 275.084 161.933C275.066 161.921 275.045 161.912 275.023 161.908C275.001 161.904 274.978 161.905 274.956 161.909C274.934 161.914 274.914 161.923 274.895 161.936L268.134 166.619C268.097 166.645 268.071 166.684 268.063 166.728C268.055 166.773 268.065 166.819 268.091 166.856L268.093 166.859Z" fill="#0C0C0C"/>
    </g>
    <g opacity="0.25">
    <path opacity="0.25" d="M270.077 169.898C270.103 169.934 270.142 169.958 270.186 169.966C270.23 169.973 270.275 169.963 270.311 169.937L277.857 164.711C277.894 164.686 277.919 164.646 277.927 164.602C277.935 164.557 277.925 164.512 277.9 164.475C277.873 164.439 277.834 164.414 277.79 164.406C277.746 164.398 277.7 164.407 277.663 164.432L270.117 169.658C270.08 169.684 270.055 169.723 270.047 169.767C270.039 169.812 270.049 169.858 270.074 169.895L270.077 169.898Z" fill="#0C0C0C"/>
    </g>
    <g opacity="0.25">
    <path opacity="0.25" d="M272.206 173.202C272.232 173.238 272.271 173.262 272.315 173.269C272.358 173.277 272.403 173.267 272.44 173.242L278.459 169.073C278.496 169.047 278.522 169.007 278.53 168.963C278.538 168.919 278.528 168.873 278.502 168.836C278.477 168.799 278.437 168.773 278.393 168.765C278.348 168.757 278.303 168.767 278.266 168.793L272.246 172.962C272.209 172.987 272.184 173.027 272.176 173.071C272.168 173.116 272.177 173.161 272.203 173.199L272.206 173.202Z" fill="#0C0C0C"/>
    </g>
    <path d="M252.553 169.325L232.158 204.062L207.271 171.419L186.603 190.052L221.898 235.764L222.129 236.089C223.542 238.024 225.424 239.568 227.598 240.574C229.772 241.581 232.167 242.017 234.557 241.842C236.946 241.667 239.252 240.887 241.256 239.574C243.261 238.262 244.898 236.461 246.014 234.341L275.017 181.818L252.553 169.325Z" fill="#F54253"/>
    <path d="M230.157 208.239C230.113 208.239 230.069 208.228 230.03 208.206C229.991 208.185 229.959 208.153 229.936 208.116C229.912 208.078 229.899 208.035 229.898 207.99C229.896 207.946 229.906 207.902 229.926 207.862L231.926 203.944C231.957 203.883 232.011 203.837 232.077 203.815C232.142 203.794 232.213 203.8 232.275 203.831C232.336 203.863 232.382 203.917 232.403 203.983C232.424 204.048 232.418 204.119 232.387 204.18L230.388 208.098C230.366 208.14 230.333 208.176 230.292 208.201C230.252 208.226 230.205 208.239 230.157 208.239Z" fill="#0C0C0C"/>
    <path d="M205.835 203.864L205.212 214.835L205.729 214.865L206.352 203.893L205.835 203.864Z" fill="#0C0C0C"/>
    <path d="M140.114 124.462C140.114 124.462 139.158 136.674 136.358 141.076C128.294 153.75 125.834 168.084 133.674 175.678C141.514 183.272 192.074 183.965 196.104 166.75C199.497 152.259 192.595 150.617 191.05 138.611C190.351 133.179 188.387 121.784 188.387 121.784" fill="#0A0A0A"/>
    <path d="M183.233 163.998C183.146 163.987 182.177 180.058 163.507 178.657C150.582 177.689 145.973 163.976 145.677 163.976C147.071 163.68 149.418 163.25 150.036 162.918C152.071 161.825 154.59 160.687 155.246 156.735C155.624 154.455 154.983 142.802 155.18 140.497L175.02 144.926C174.743 149.793 172.803 161.078 179.603 163.076C180.735 163.406 181.954 163.71 183.233 163.998Z" fill="#E98862"/>
    <path opacity="0.52" d="M175.299 158.464C174.988 157.462 174.788 156.43 174.702 155.385C174.484 153 174.527 150.598 174.831 148.223C170.799 147.678 167 146.014 163.866 143.418C163.498 144.779 161.471 150.725 162.033 152.017C163.093 154.461 168.076 158.464 175.299 158.464Z" fill="#0C0C0C"/>
    <path d="M172.668 153.406C164.837 154.072 154.753 150.826 152.778 140.386L150.995 130.965C149.019 120.525 152.901 111.023 162.731 109.163C172.561 107.303 181.51 114.376 183.486 124.816L184.276 128.987C185.034 132.992 186.64 152.217 172.668 153.406Z" fill="#E98862"/>
    <path d="M181.474 129.441C182.155 129.441 182.707 128.889 182.707 128.209C182.707 127.528 182.155 126.976 181.474 126.976C180.794 126.976 180.242 127.528 180.242 128.209C180.242 128.889 180.794 129.441 181.474 129.441Z" fill="#0C0C0C"/>
    <path d="M168.85 131.128C169.531 131.128 170.083 130.576 170.083 129.896C170.083 129.215 169.531 128.663 168.85 128.663C168.17 128.663 167.618 129.215 167.618 129.896C167.618 130.576 168.17 131.128 168.85 131.128Z" fill="#0C0C0C"/>
    <path opacity="0.52" d="M175.777 138.932L175.796 138.929C176.194 138.851 176.588 138.751 176.975 138.629C177.553 138.443 178.31 138.136 178.212 137.613C178.099 137.018 175.255 130.908 174.931 130.214C174.917 130.183 174.897 130.156 174.873 130.133C174.848 130.111 174.82 130.093 174.789 130.082C174.757 130.07 174.724 130.065 174.691 130.066C174.658 130.067 174.625 130.075 174.595 130.089C174.564 130.104 174.537 130.123 174.515 130.148C174.492 130.173 174.475 130.201 174.464 130.233C174.452 130.264 174.447 130.297 174.449 130.331C174.451 130.364 174.459 130.397 174.473 130.427C175.686 133.029 177.639 137.306 177.715 137.707C177.65 137.893 176.691 138.245 175.702 138.432C175.638 138.444 175.58 138.48 175.541 138.534C175.503 138.587 175.486 138.653 175.496 138.718C175.506 138.784 175.541 138.842 175.593 138.882C175.646 138.922 175.712 138.94 175.777 138.932V138.932Z" fill="#0C0C0C"/>
    <path opacity="0.52" d="M174.323 143.437C175.926 143.229 177.458 142.647 178.795 141.738C178.851 141.701 178.891 141.644 178.904 141.578C178.918 141.513 178.905 141.444 178.869 141.388C178.832 141.332 178.775 141.293 178.71 141.279C178.644 141.265 178.576 141.278 178.52 141.315C175.626 143.2 172.75 143.505 170.204 142.196C170.153 142.168 170.1 142.143 170.046 142.12C169.983 142.097 169.913 142.101 169.853 142.129C169.792 142.157 169.745 142.209 169.723 142.272C169.7 142.335 169.703 142.404 169.731 142.465C169.76 142.526 169.811 142.573 169.874 142.595C169.894 142.604 169.926 142.621 169.973 142.647C171.312 143.337 172.827 143.612 174.323 143.437Z" fill="#0C0C0C"/>
    <path d="M143.13 134.248L151.943 132.633C158.616 129.932 160.635 118.379 160.635 118.379C160.635 118.379 168.741 126.28 188.386 121.786C188.386 121.786 184.447 94.3893 155.425 102.353C146.066 104.922 139.35 114.352 140.187 126.956C140.774 135.791 143.13 134.248 143.13 134.248Z" fill="#0A0A0A"/>
    <path d="M153.991 143.451C151.004 144.016 147.977 141.278 147.41 138.291C146.842 135.304 148.955 133.198 151.942 132.633L153.859 134.343L156.557 142.965L153.991 143.451Z" fill="#E98862"/>
    <path d="M176.733 125.218C177.604 124.655 178.611 124.337 179.647 124.298C180.157 124.275 180.668 124.329 181.162 124.458C181.652 124.583 182.123 124.77 182.566 125.014C182.629 125.045 182.676 125.099 182.699 125.165C182.722 125.23 182.718 125.302 182.687 125.365C182.657 125.428 182.603 125.476 182.538 125.499C182.472 125.522 182.4 125.519 182.337 125.489L182.318 125.48C181.909 125.279 181.476 125.13 181.03 125.037C180.589 124.943 180.136 124.915 179.686 124.956C178.795 125.031 177.94 125.34 177.206 125.852L177.183 125.87C177.14 125.901 177.093 125.923 177.042 125.935C176.991 125.947 176.939 125.949 176.887 125.941C176.836 125.933 176.787 125.915 176.742 125.887C176.698 125.86 176.659 125.825 176.629 125.782C176.598 125.74 176.576 125.693 176.564 125.642C176.552 125.591 176.549 125.539 176.558 125.487C176.566 125.436 176.584 125.387 176.611 125.342C176.638 125.298 176.674 125.259 176.716 125.228L176.733 125.218Z" fill="#0C0C0C"/>
    <path d="M168.873 127.068C168.004 126.855 167.095 126.876 166.237 127.129C165.803 127.253 165.39 127.442 165.013 127.689C164.63 127.938 164.281 128.234 163.972 128.57L163.958 128.584C163.91 128.632 163.844 128.66 163.776 128.661C163.707 128.663 163.641 128.637 163.591 128.591C163.541 128.544 163.511 128.48 163.508 128.411C163.504 128.343 163.527 128.276 163.572 128.224C163.897 127.837 164.269 127.492 164.681 127.199C165.095 126.9 165.551 126.665 166.035 126.502C167.016 126.165 168.07 126.097 169.086 126.307C169.189 126.329 169.279 126.391 169.336 126.48C169.394 126.568 169.413 126.676 169.391 126.779C169.369 126.882 169.307 126.972 169.218 127.029C169.13 127.087 169.022 127.106 168.919 127.084L168.903 127.08L168.873 127.068Z" fill="#0C0C0C"/>
    <path opacity="0.52" d="M174.664 145.808C174.954 145.774 175.241 145.717 175.522 145.635C175.586 145.617 175.641 145.573 175.673 145.515C175.706 145.456 175.714 145.387 175.695 145.323C175.677 145.258 175.633 145.204 175.575 145.171C175.516 145.139 175.447 145.131 175.383 145.149C173.693 145.636 172.732 144.994 172.692 144.964C172.637 144.925 172.569 144.91 172.503 144.922C172.437 144.934 172.378 144.971 172.34 145.026C172.301 145.081 172.286 145.149 172.298 145.215C172.309 145.281 172.347 145.34 172.402 145.379C173.084 145.779 173.883 145.93 174.664 145.808Z" fill="#0C0C0C"/>
    <path d="M151.963 132.521L151.875 132.277C163.04 128.269 160.31 117.312 160.281 117.202L160.532 117.136C160.561 117.249 163.354 128.432 151.963 132.521Z" fill="#0C0C0C"/>
    <path opacity="0.1" d="M167.815 139.658C169.103 139.519 170.066 138.64 169.964 137.695C169.862 136.75 168.735 136.096 167.446 136.235C166.157 136.373 165.195 137.252 165.297 138.197C165.399 139.143 166.526 139.797 167.815 139.658Z" fill="#0C0C0C"/>
    <path opacity="0.1" d="M181.5 136.082C181.604 137.026 182.732 137.679 184.021 137.542C184.244 137.518 184.463 137.471 184.676 137.401C184.749 136.278 184.765 135.197 184.744 134.195C184.388 134.102 184.017 134.076 183.651 134.118C182.362 134.255 181.4 135.134 181.5 136.082Z" fill="#0C0C0C"/>
    <path d="M206.429 199.38C205.841 206.289 202.98 249.392 202.415 257.902H127.6C127.16 250.227 122.074 216.665 120.405 201.656C118.811 187.334 115.685 180.164 117.976 175.929C121.721 169.009 131.954 165.01 138.931 164.066C143.192 163.489 149.599 163.076 149.599 163.076C149.599 163.076 150.142 174.051 163.079 174.662C180.691 175.492 179.515 163.076 179.602 163.076C182.455 163.076 198.754 164.882 202.742 167.245C213.606 173.68 207.677 184.742 206.429 199.38Z" fill="#F54253"/>
    <path d="M254.992 204.207L247.781 239.257C247.635 239.969 247.249 240.61 246.689 241.072C246.128 241.534 245.426 241.79 244.699 241.797L195.041 242.219C194.568 242.223 194.099 242.121 193.67 241.921C193.241 241.72 192.862 241.426 192.561 241.06C192.26 240.695 192.045 240.266 191.931 239.806C191.817 239.346 191.808 238.867 191.903 238.403L199.114 203.351C199.261 202.639 199.647 201.999 200.208 201.538C200.77 201.076 201.472 200.821 202.199 200.815L251.857 200.392C252.33 200.389 252.798 200.491 253.227 200.691C253.655 200.892 254.034 201.186 254.334 201.552C254.635 201.917 254.85 202.345 254.964 202.805C255.078 203.264 255.088 203.743 254.992 204.207Z" fill="#292A2E"/>
    <path d="M208.687 229.104C208.714 229.566 208.572 230.021 208.29 230.387C208.007 230.752 207.601 231.004 207.148 231.094L205.619 231.431C205.647 231.44 205.671 231.455 205.691 231.476C205.711 231.497 205.726 231.522 205.733 231.55C205.737 231.583 205.73 231.615 205.713 231.643C206.08 231.747 206.406 231.962 206.646 232.259C206.886 232.556 207.027 232.921 207.05 233.302C207.052 233.746 206.904 234.178 206.63 234.527C206.357 234.877 205.973 235.125 205.542 235.229L192.633 238.095C191.973 238.243 191.299 238.318 190.622 238.318C189.116 238.318 187.632 237.951 186.298 237.25C184.965 236.548 183.822 235.533 182.968 234.291C182.063 232.978 181.706 231.363 181.973 229.79C182.24 228.218 183.111 226.811 184.399 225.87L195.38 217.843C195.621 217.667 195.902 217.551 196.198 217.507L195.188 222.414L195.457 222.352L195.514 222.341L203.935 220.626C204.873 220.419 206.158 220.761 206.324 221.828C206.413 222.237 206.361 222.664 206.177 223.039C205.992 223.415 205.686 223.717 205.308 223.896C205.314 223.901 205.324 223.906 205.324 223.917C205.324 223.927 205.319 223.932 205.319 223.943L206.775 223.621C207.041 223.562 207.318 223.563 207.584 223.624C207.85 223.684 208.099 223.803 208.314 223.972C208.528 224.14 208.703 224.354 208.825 224.598C208.947 224.842 209.013 225.111 209.019 225.383C209.019 225.819 208.868 226.241 208.592 226.578C208.316 226.915 207.933 227.147 207.506 227.233L206.879 227.373C206.873 227.394 206.879 227.415 206.868 227.43C207.325 227.434 207.764 227.607 208.101 227.916C208.437 228.226 208.646 228.649 208.687 229.104Z" fill="#E98862"/>
    <g opacity="0.25">
    <path opacity="0.25" d="M196.936 225.644C196.946 225.687 196.973 225.725 197.01 225.749C197.047 225.773 197.093 225.781 197.136 225.772L205.193 224.12C205.215 224.115 205.236 224.107 205.254 224.094C205.273 224.082 205.289 224.066 205.301 224.047C205.313 224.028 205.322 224.007 205.326 223.985C205.33 223.964 205.33 223.941 205.326 223.919C205.321 223.897 205.312 223.876 205.3 223.858C205.287 223.839 205.271 223.824 205.253 223.811C205.234 223.799 205.213 223.79 205.191 223.786C205.169 223.782 205.147 223.782 205.125 223.787L197.068 225.439C197.024 225.448 196.985 225.474 196.96 225.512C196.935 225.55 196.926 225.596 196.935 225.64L196.936 225.644Z" fill="#0C0C0C"/>
    </g>
    <g opacity="0.25">
    <path opacity="0.25" d="M197.567 229.218C197.577 229.261 197.604 229.299 197.641 229.323C197.678 229.347 197.724 229.355 197.767 229.346L206.759 227.502C206.803 227.493 206.842 227.467 206.867 227.429C206.892 227.392 206.901 227.346 206.892 227.301C206.881 227.258 206.855 227.22 206.817 227.195C206.78 227.171 206.735 227.161 206.691 227.169L197.698 229.013C197.676 229.017 197.655 229.026 197.636 229.039C197.618 229.051 197.602 229.067 197.59 229.086C197.577 229.104 197.569 229.125 197.565 229.147C197.56 229.169 197.56 229.192 197.565 229.214L197.567 229.218Z" fill="#0C0C0C"/>
    </g>
    <g opacity="0.25">
    <path opacity="0.25" d="M198.227 233.091C198.237 233.134 198.264 233.172 198.301 233.196C198.338 233.22 198.384 233.228 198.427 233.219L205.6 231.748C205.622 231.744 205.642 231.735 205.661 231.722C205.679 231.71 205.695 231.694 205.707 231.675C205.72 231.656 205.728 231.636 205.733 231.614C205.737 231.592 205.737 231.569 205.732 231.547C205.728 231.525 205.719 231.505 205.706 231.486C205.694 231.468 205.678 231.452 205.659 231.439C205.64 231.427 205.62 231.419 205.598 231.414C205.576 231.41 205.553 231.41 205.531 231.415L198.359 232.886C198.315 232.895 198.276 232.921 198.251 232.959C198.226 232.996 198.217 233.042 198.226 233.087L198.227 233.091Z" fill="#0C0C0C"/>
    </g>
    <path d="M191.834 243.202L121.8 255.859C119.615 256.096 117.405 255.824 115.342 255.064C113.28 254.303 111.422 253.075 109.914 251.476C108.405 249.878 107.288 247.951 106.65 245.848C106.011 243.744 105.869 241.522 106.233 239.354L116.035 181.078C116.343 179.234 117.012 177.47 118.003 175.885C118.994 174.3 120.288 172.925 121.81 171.841C123.333 170.756 125.054 169.982 126.876 169.563C128.697 169.143 130.584 169.087 132.427 169.397C134.271 169.707 136.035 170.378 137.619 171.37C139.203 172.362 140.576 173.657 141.66 175.18C142.744 176.703 143.516 178.425 143.934 180.247C144.352 182.069 144.407 183.956 144.095 185.799L137.41 225.916L188.755 219.468L191.834 243.202Z" fill="#F54253"/>
    <path d="M121.8 256.118C121.735 256.118 121.673 256.093 121.625 256.05C121.577 256.006 121.548 255.946 121.542 255.882C121.536 255.817 121.555 255.753 121.594 255.702C121.633 255.65 121.69 255.615 121.754 255.604L191.545 242.992L188.531 219.757L137.442 226.173C137.402 226.178 137.361 226.174 137.323 226.161C137.285 226.147 137.251 226.125 137.223 226.096C137.195 226.067 137.174 226.031 137.162 225.993C137.15 225.954 137.147 225.913 137.154 225.874L141.403 200.234C141.409 200.2 141.421 200.167 141.438 200.138C141.456 200.109 141.48 200.084 141.508 200.064C141.535 200.044 141.567 200.03 141.6 200.023C141.633 200.015 141.668 200.015 141.701 200.021C141.735 200.026 141.767 200.038 141.796 200.056C141.825 200.074 141.85 200.098 141.87 200.125C141.89 200.153 141.904 200.184 141.912 200.217C141.919 200.251 141.92 200.285 141.915 200.319L137.722 225.615L188.722 219.21C188.79 219.202 188.858 219.221 188.912 219.263C188.967 219.305 189.002 219.366 189.011 219.434L192.09 243.168C192.098 243.234 192.081 243.301 192.042 243.354C192.003 243.408 191.944 243.445 191.879 243.456L121.846 256.114C121.831 256.116 121.815 256.118 121.8 256.118Z" fill="#0C0C0C"/>
    <path d="M137.37 225.66L132.865 226.382L132.947 226.894L137.452 226.173L137.37 225.66Z" fill="#0C0C0C"/>
    <path d="M486.535 286.7H333.272C326.906 286.7 321.745 291.861 321.745 298.227V350.704C321.745 357.07 326.906 362.231 333.272 362.231H486.535C492.901 362.231 498.062 357.07 498.062 350.704V298.227C498.062 291.861 492.901 286.7 486.535 286.7Z" fill="white"/>
    <path opacity="0.4" d="M486.535 286.7H333.272C326.906 286.7 321.745 291.861 321.745 298.227V350.704C321.745 357.07 326.906 362.231 333.272 362.231H486.535C492.901 362.231 498.062 357.07 498.062 350.704V298.227C498.062 291.861 492.901 286.7 486.535 286.7Z" fill="#F54253"/>
    <path d="M486.534 362.746H333.272C330.078 362.743 327.017 361.472 324.759 359.214C322.501 356.956 321.23 353.895 321.227 350.701V298.229C321.23 295.036 322.501 291.974 324.759 289.716C327.017 287.458 330.078 286.188 333.272 286.184H486.534C489.728 286.188 492.789 287.458 495.047 289.716C497.306 291.974 498.576 295.036 498.58 298.229V350.703C498.575 353.896 497.305 356.957 495.047 359.215C492.789 361.473 489.727 362.743 486.534 362.746ZM333.272 287.218C330.353 287.222 327.554 288.383 325.49 290.447C323.426 292.512 322.266 295.31 322.263 298.229V350.703C322.267 353.622 323.428 356.419 325.492 358.483C327.556 360.546 330.353 361.707 333.272 361.71H486.534C489.453 361.707 492.251 360.546 494.315 358.482C496.379 356.418 497.54 353.62 497.543 350.701V298.229C497.54 295.311 496.379 292.512 494.315 290.449C492.251 288.385 489.453 287.224 486.534 287.221L333.272 287.218Z" fill="#292A2E"/>
    <path d="M337.555 346.137C337.415 346.137 337.278 346.1 337.158 346.029C337.038 345.957 336.939 345.855 336.872 345.733C336.806 345.61 336.773 345.472 336.778 345.332C336.783 345.193 336.825 345.057 336.901 344.94C337.069 344.681 354.007 318.781 380.925 318.781C394.99 318.781 403.512 324.208 411.755 329.456C419.383 334.315 426.589 338.904 437.74 338.904C460.537 338.904 478.903 305.795 479.085 305.461C479.184 305.28 479.351 305.146 479.548 305.088C479.746 305.03 479.959 305.053 480.14 305.152C480.321 305.251 480.455 305.417 480.513 305.615C480.571 305.813 480.548 306.026 480.449 306.207C479.685 307.606 461.45 340.46 437.74 340.46C426.136 340.46 418.745 335.753 410.919 330.77C402.865 325.64 394.538 320.337 380.925 320.337C354.868 320.337 338.373 345.526 338.209 345.781C338.139 345.89 338.042 345.98 337.927 346.043C337.813 346.105 337.685 346.137 337.555 346.137Z" fill="white"/>
    <path d="M479.985 308.877C481.665 308.877 483.027 307.515 483.027 305.835C483.027 304.155 481.665 302.793 479.985 302.793C478.305 302.793 476.943 304.155 476.943 305.835C476.943 307.515 478.305 308.877 479.985 308.877Z" fill="white"/>
    </svg>
    