<svg width="43" height="43" viewBox="0 0 43 43" fill="none" xmlns="http://www.w3.org/2000/svg">
    <rect x="2.6875" y="2.6875" width="37.625" height="37.625" rx="10" fill="url(#paint0_radial_1263_956)"/>
    <rect x="2.6875" y="2.6875" width="37.625" height="37.625" rx="10" fill="url(#paint1_radial_1263_956)"/>
    <rect x="2.6875" y="2.6875" width="37.625" height="37.625" rx="10" fill="url(#paint2_radial_1263_956)"/>
    <path d="M31.65 13.525C31.65 14.7262 30.6762 15.7 29.475 15.7C28.2738 15.7 27.3 14.7262 27.3 13.525C27.3 12.3238 28.2738 11.35 29.475 11.35C30.6762 11.35 31.65 12.3238 31.65 13.525Z" fill="white"/>
    <path fill-rule="evenodd" clip-rule="evenodd" d="M21.5 28.75C25.5041 28.75 28.75 25.5041 28.75 21.5C28.75 17.4959 25.5041 14.25 21.5 14.25C17.4959 14.25 14.25 17.4959 14.25 21.5C14.25 25.5041 17.4959 28.75 21.5 28.75ZM21.5 25.85C23.9024 25.85 25.85 23.9024 25.85 21.5C25.85 19.0976 23.9024 17.15 21.5 17.15C19.0976 17.15 17.15 19.0976 17.15 21.5C17.15 23.9024 19.0976 25.85 21.5 25.85Z" fill="white"/>
    <path fill-rule="evenodd" clip-rule="evenodd" d="M7 20.92C7 16.0475 7 13.6113 7.94824 11.7503C8.78234 10.1133 10.1133 8.78234 11.7503 7.94824C13.6113 7 16.0475 7 20.92 7H22.08C26.9525 7 29.3887 7 31.2497 7.94824C32.8867 8.78234 34.2177 10.1133 35.0518 11.7503C36 13.6113 36 16.0475 36 20.92V22.08C36 26.9525 36 29.3887 35.0518 31.2497C34.2177 32.8867 32.8867 34.2177 31.2497 35.0518C29.3887 36 26.9525 36 22.08 36H20.92C16.0475 36 13.6113 36 11.7503 35.0518C10.1133 34.2177 8.78234 32.8867 7.94824 31.2497C7 29.3887 7 26.9525 7 22.08V20.92ZM20.92 9.9H22.08C24.5641 9.9 26.2527 9.90226 27.558 10.0089C28.8294 10.1128 29.4796 10.3011 29.9331 10.5322C31.0245 11.0882 31.9118 11.9755 32.4678 13.0669C32.6989 13.5204 32.8872 14.1706 32.9911 15.442C33.0977 16.7473 33.1 18.4359 33.1 20.92V22.08C33.1 24.5641 33.0977 26.2527 32.9911 27.558C32.8872 28.8294 32.6989 29.4796 32.4678 29.9331C31.9118 31.0245 31.0245 31.9118 29.9331 32.4678C29.4796 32.6989 28.8294 32.8872 27.558 32.9911C26.2527 33.0977 24.5641 33.1 22.08 33.1H20.92C18.4359 33.1 16.7473 33.0977 15.442 32.9911C14.1706 32.8872 13.5204 32.6989 13.0669 32.4678C11.9755 31.9118 11.0882 31.0245 10.5322 29.9331C10.3011 29.4796 10.1128 28.8294 10.0089 27.558C9.90226 26.2527 9.9 24.5641 9.9 22.08V20.92C9.9 18.4359 9.90226 16.7473 10.0089 15.442C10.1128 14.1706 10.3011 13.5204 10.5322 13.0669C11.0882 11.9755 11.9755 11.0882 13.0669 10.5322C13.5204 10.3011 14.1706 10.1128 15.442 10.0089C16.7473 9.90226 18.4359 9.9 20.92 9.9Z" fill="white"/>
    <defs>
    <radialGradient id="paint0_radial_1263_956" cx="0" cy="0" r="1" gradientUnits="userSpaceOnUse" gradientTransform="translate(16.125 30.9063) rotate(-55.3758) scale(34.292)">
    <stop stop-color="#B13589"/>
    <stop offset="0.79309" stop-color="#C62F94"/>
    <stop offset="1" stop-color="#8A3AC8"/>
    </radialGradient>
    <radialGradient id="paint1_radial_1263_956" cx="0" cy="0" r="1" gradientUnits="userSpaceOnUse" gradientTransform="translate(14.7812 41.6562) rotate(-65.1363) scale(30.361)">
    <stop stop-color="#E0E8B7"/>
    <stop offset="0.444662" stop-color="#FB8A2E"/>
    <stop offset="0.71474" stop-color="#E2425C"/>
    <stop offset="1" stop-color="#E2425C" stop-opacity="0"/>
    </radialGradient>
    <radialGradient id="paint2_radial_1263_956" cx="0" cy="0" r="1" gradientUnits="userSpaceOnUse" gradientTransform="translate(0.671877 4.03125) rotate(-8.1301) scale(52.2596 11.1778)">
    <stop offset="0.156701" stop-color="#406ADC"/>
    <stop offset="0.467799" stop-color="#6A45BE"/>
    <stop offset="1" stop-color="#6A45BE" stop-opacity="0"/>
    </radialGradient>
    </defs>
    </svg>
    